<svg xmlns="http://www.w3.org/2000/svg" viewBox="0 0 827.69 204.37"><title>logo</title><g id="f3b48e25-d4c2-4786-af7b-3961ef414689" data-name="Layer 2"><g id="b3c695c6-6268-4e0e-aa3a-b9c4b0c14b03" data-name="Layer 1"><path d="M28.5,118.57A52,52,0,0,1,7.57,99.07,53.79,53.79,0,0,1,0,70.65,53.82,53.82,0,0,1,7.57,42.23,52.16,52.16,0,0,1,28.5,22.73a63.68,63.68,0,0,1,30-7,65.86,65.86,0,0,1,27.3,5.4,50.67,50.67,0,0,1,19.8,15.6l-22.35,20q-9.75-12.3-23-12.3-11.1,0-17.85,7.12T35.7,70.65q0,12,6.75,19.12T60.3,96.9q13.2,0,23-12.3l22.35,20a50.67,50.67,0,0,1-19.8,15.6,65.86,65.86,0,0,1-27.3,5.4A63.68,63.68,0,0,1,28.5,118.57Z" style="fill:#001f50"/><path d="M184.5,49.27Q195.9,59,195.9,79.05v44.1H164.4v-10.8q-5.85,12.3-23.25,12.3-9.75,0-16.58-3.38A23.75,23.75,0,0,1,110.7,99.15Q110.7,87,120,80.7t28.2-6.3h13.65q-1.65-9.6-15.45-9.6a39,39,0,0,0-11.25,1.72,31.85,31.85,0,0,0-9.75,4.73L114.6,48.9a59.9,59.9,0,0,1,17-6.83A82.3,82.3,0,0,1,151.5,39.6Q173.1,39.6,184.5,49.27Zm-26.7,53a11.28,11.28,0,0,0,4.2-5.85v-5.7h-8.4q-10.35,0-10.35,6.9a6,6,0,0,0,2.17,4.72,8.74,8.74,0,0,0,5.93,1.88A11.15,11.15,0,0,0,157.8,102.3Z" style="fill:#001f50"/><path d="M292,48.75q9.22,9.15,9.23,27.6v46.8H267.3V82.2q0-14.1-10.05-14.1a11.78,11.78,0,0,0-9.23,4q-3.53,4-3.52,12.53v38.55H210.6V41.1h32.25v8.1A31.28,31.28,0,0,1,254,42a38,38,0,0,1,13.65-2.4Q282.75,39.6,292,48.75Z" style="fill:#001f50"/><path d="M408.15,11.85v111.3H375.9V116.4q-7.35,8.25-22.5,8.25a39.44,39.44,0,0,1-19.88-5.17,37.41,37.41,0,0,1-14.4-14.93,46.19,46.19,0,0,1-5.32-22.5,45.78,45.78,0,0,1,5.32-22.43,37.58,37.58,0,0,1,14.4-14.85A39.44,39.44,0,0,1,353.4,39.6q13.64,0,20.85,7V11.85ZM371.1,94c2.49-2.86,3.75-6.83,3.75-11.93s-1.26-9-3.75-11.85a13.07,13.07,0,0,0-19.2,0q-3.75,4.2-3.75,11.85T351.9,94a12.93,12.93,0,0,0,19.2,0Z" style="fill:#001f50"/><path d="M425.32,29.63a15.68,15.68,0,0,1-5.63-12.38,15.66,15.66,0,0,1,5.63-12.37Q430.95,0,440.09,0q9.3,0,14.85,4.65a14.93,14.93,0,0,1,5.55,12,16.54,16.54,0,0,1-5.55,12.83q-5.55,5-14.85,5Q430.94,34.5,425.32,29.63ZM423.14,41.1H457v82.05h-33.9Z" style="fill:#001f50"/><path d="M562.79,11.85v111.3H530.54V116.4q-7.35,8.25-22.5,8.25a39.4,39.4,0,0,1-19.87-5.17,37.27,37.27,0,0,1-14.4-14.93,46.19,46.19,0,0,1-5.33-22.5,45.78,45.78,0,0,1,5.33-22.43,37.45,37.45,0,0,1,14.4-14.85A39.4,39.4,0,0,1,508,39.6q13.65,0,20.85,7V11.85ZM525.74,94q3.75-4.29,3.75-11.93T525.74,70.2a13.07,13.07,0,0,0-19.2,0q-3.75,4.2-3.75,11.85T506.54,94a12.93,12.93,0,0,0,19.2,0Z" style="fill:#001f50"/><path d="M647.54,49.27q11.4,9.69,11.4,29.78v44.1h-31.5v-10.8q-5.85,12.3-23.25,12.3-9.75,0-16.58-3.38a23.75,23.75,0,0,1-13.87-22.12q0-12.15,9.3-18.45t28.2-6.3h13.65q-1.65-9.6-15.45-9.6a39,39,0,0,0-11.25,1.72,31.85,31.85,0,0,0-9.75,4.73L577.64,48.9a59.9,59.9,0,0,1,17-6.83,82.3,82.3,0,0,1,19.88-2.47Q636.14,39.6,647.54,49.27Zm-26.7,53a11.28,11.28,0,0,0,4.2-5.85v-5.7h-8.4q-10.35,0-10.35,6.9a6,6,0,0,0,2.17,4.72,8.74,8.74,0,0,0,5.93,1.88A11.15,11.15,0,0,0,620.84,102.3Z" style="fill:#001f50"/><path d="M734.09,120.3q-7.65,4.35-20.85,4.35-17.25,0-26.55-8.33t-9.3-25v-21H666.14V45.6h11.25v-23h33.9v23h16.8V70.35h-16.8v20.7a8.27,8.27,0,0,0,2,5.85,6.64,6.64,0,0,0,5.1,2.1A13.25,13.25,0,0,0,726,96.75Z" style="fill:#001f50"/><path d="M827.24,90h-57a13.76,13.76,0,0,0,6,7.12,20.4,20.4,0,0,0,10.5,2.48,26.48,26.48,0,0,0,9.07-1.35,31.85,31.85,0,0,0,8-4.65l17.7,17.85q-12,13.2-35.85,13.2-14.85,0-26.1-5.47A41.46,41.46,0,0,1,742.19,104,40.19,40.19,0,0,1,736,82.05a40.47,40.47,0,0,1,6.07-22A41.51,41.51,0,0,1,758.76,45a54.84,54.84,0,0,1,46.5-.45A39,39,0,0,1,821.61,59.1q6.07,9.6,6.08,22.95Q827.69,82.8,827.24,90Zm-53.1-24.45a13.53,13.53,0,0,0-4.5,8.1H796a13.79,13.79,0,0,0-4.5-8,13,13,0,0,0-8.7-2.92A13.2,13.2,0,0,0,774.14,65.55Z" style="fill:#001f50"/><path d="M112.62,184.47v18.3H56.52v-14.5l25.3-23.4a20.64,20.64,0,0,0,4.4-5.3,9.47,9.47,0,0,0,1.1-4.3,5,5,0,0,0-1.75-4.05,7.75,7.75,0,0,0-5-1.45,11.41,11.41,0,0,0-6,1.7,11.27,11.27,0,0,0-4.3,4.8l-17.8-8.9a29.26,29.26,0,0,1,11.7-11.85q7.71-4.35,18.6-4.35a37.5,37.5,0,0,1,14.7,2.7,23,23,0,0,1,10,7.7,19.2,19.2,0,0,1,3.6,11.5,24.41,24.41,0,0,1-2.45,10.85Q106.13,169,99,175.37l-10,9.1Z" style="fill:#db3349"/><path d="M132.67,200a29.59,29.59,0,0,1-11.2-12.6q-4.05-8.25-4-19.65t4-19.65a29.59,29.59,0,0,1,11.2-12.6,33.28,33.28,0,0,1,32.9,0,29.53,29.53,0,0,1,11.2,12.6q4,8.25,4,19.65t-4,19.65a29.53,29.53,0,0,1-11.2,12.6,33.28,33.28,0,0,1-32.9,0Zm24.45-32.25q0-17.7-8-17.7t-8,17.7q0,17.7,8,17.7T157.12,167.77Z" style="fill:#db3349"/><path d="M241.62,184.47v18.3h-56.1v-14.5l25.3-23.4a20.64,20.64,0,0,0,4.4-5.3,9.47,9.47,0,0,0,1.1-4.3,5,5,0,0,0-1.75-4.05,7.77,7.77,0,0,0-5-1.45,11.41,11.41,0,0,0-6,1.7,11.21,11.21,0,0,0-4.3,4.8l-17.8-8.9a29.26,29.26,0,0,1,11.7-11.85q7.69-4.35,18.6-4.35a37.56,37.56,0,0,1,14.7,2.7,23,23,0,0,1,10,7.7,19.2,19.2,0,0,1,3.6,11.5,24.41,24.41,0,0,1-2.45,10.85Q235.13,169,228,175.37l-10,9.1Z" style="fill:#db3349"/><path d="M261.67,200a29.53,29.53,0,0,1-11.2-12.6q-4-8.25-4.05-19.65t4.05-19.65a29.53,29.53,0,0,1,11.2-12.6,33.28,33.28,0,0,1,32.9,0,29.53,29.53,0,0,1,11.2,12.6q4.05,8.25,4.05,19.65t-4.05,19.65a29.53,29.53,0,0,1-11.2,12.6,33.28,33.28,0,0,1-32.9,0Zm24.45-32.25q0-17.7-8-17.7t-8,17.7q0,17.7,8,17.7T286.12,167.77Z" style="fill:#db3349"/></g></g></svg>